<svg version="1.2" xmlns="http://www.w3.org/2000/svg" viewBox="0 0 3710 3710" width="3710" height="3710"><defs><linearGradient id="P" gradientUnits="userSpaceOnUse"/><linearGradient id="g1" x1="2785.7" y1="561.4" x2="3429.2" y2="2608.9" href="#P"><stop stop-color="#ff9085"/><stop offset="1" stop-color="#fb6fbb"/></linearGradient><clipPath clipPathUnits="userSpaceOnUse" id="cp1"><path d="m2771.14 3124.54c-107.95-123.75-248.74-322.81-295.59-590.14-53.78-306.95 65.46-423.36 67.32-776.59 2.65-504.22-335.41-725.64-200.96-936.28 65.57-102.72 210.96-164.28 327.62-138.35 332.85 73.98 598.42 897.18 323.59 1378.51-124.3 217.7-291.49 268.83-352.56 508.33-53.96 211.62 44.95 418.84 130.58 554.52z"/></clipPath><linearGradient id="g2" x1="3135.2" y1="825.3" x2="3983.2" y2="-710.8" href="#P"><stop offset="0" stop-color="#e38ddd"/><stop offset="1" stop-color="#9571f6"/></linearGradient><clipPath clipPathUnits="userSpaceOnUse" id="cp2"><path d="m2529.66 2961.1c-56.79-89.78-129.74-236.65-108.2-404.71 37.58-293.18 320.44-320.86 452.99-674.01 106.92-284.83-20.69-417.07 135.91-642.55 26.21-37.75 162.61-242.12 334.88-226.65 97.08 8.71 162.45 83.26 174.72 97.25 185.47 211.51 97.85 702.56-154.18 1016.81-144.8 180.55-219.32 173.09-499.54 430.76-164.66 151.41-272.54 302.32-336.58 403.1z"/></clipPath><linearGradient id="g3" x1="3754.9" y1="2322.2" x2="2356.8" y2="3642.4" href="#P"><stop stop-color="#aa80f9"/><stop offset="1" stop-color="#6165d7"/></linearGradient><linearGradient id="g4" x1="5909.9" y1="13613.3" x2="7380.4" y2="16806.7" href="#P"><stop offset="0" stop-color="#e38ddd"/><stop offset="1" stop-color="#9571f6"/></linearGradient><clipPath clipPathUnits="userSpaceOnUse" id="cp3"><path d="m881.78 2931.21c-280.22-257.67-354.74-250.21-499.54-430.76-252.02-314.25-339.65-805.3-154.18-1016.81 12.28-13.99 77.65-88.54 174.72-97.25 172.28-15.47 308.68 188.91 334.89 226.65 156.59 225.48 28.99 357.72 135.9 642.55 132.56 353.15 415.41 380.83 452.99 674.01 21.54 168.06-51.4 314.93-108.2 404.71-64.04-100.77-171.92-251.69-336.58-403.1z"/></clipPath><linearGradient id="g5" x1="-6.9" y1="2695.4" x2="1391.2" y2="4015.6" href="#P"><stop stop-color="#ff9085"/><stop offset="1" stop-color="#fb6fbb"/></linearGradient><linearGradient id="g6" x1="577.2" y1="239.3" x2="1490.6" y2="199.6" href="#P"><stop stop-color="#ab316d"/><stop offset="1" stop-color="#792d3d"/></linearGradient><linearGradient id="g7" x1="507.2" y1="1104.7" x2="1359.2" y2="1104.7" href="#P"><stop stop-color="#ffc444"/><stop offset="1" stop-color="#f36f56"/></linearGradient><linearGradient id="g8" x1="742.2" y1="1104.7" x2="1359.2" y2="1104.7" href="#P"><stop stop-color="#ffc444"/><stop offset="1" stop-color="#f36f56"/></linearGradient><linearGradient id="g9" x1="2899.3" y1="1468.4" x2="4394.4" y2="3987.4" href="#P"><stop stop-color="#ffc444"/><stop offset="1" stop-color="#f36f56"/></linearGradient><linearGradient id="g10" x1="2848.7" y1="1451.8" x2="4059" y2="4294.2" href="#P"><stop stop-color="#ffc444"/><stop offset="1" stop-color="#f36f56"/></linearGradient><linearGradient id="g11" x1="2532.9" y1="109" x2="2163" y2="3265.7" href="#P"><stop stop-color="#ab316d"/><stop offset="1" stop-color="#792d3d"/></linearGradient><linearGradient id="g12" x1="2288.3" y1="-137.3" x2="1136.9" y2="2053.3" href="#P"><stop stop-color="#ab316d"/><stop offset="1" stop-color="#792d3d"/></linearGradient><linearGradient id="g13" x1="3013.9" y1="273.1" x2="1862.4" y2="2463.6" href="#P"><stop stop-color="#ab316d"/><stop offset="1" stop-color="#792d3d"/></linearGradient><linearGradient id="g14" x1="232.1" y1="2166.7" x2="494.5" y2="2208.9" href="#P"><stop stop-color="#aa80f9"/><stop offset="1" stop-color="#6165d7"/></linearGradient><linearGradient id="g15" x1="1870.1" y1="2202.5" x2="2954.8" y2="3497.5" href="#P"><stop stop-color="#aa80f9"/><stop offset="1" stop-color="#6165d7"/></linearGradient><linearGradient id="g16" x1="945.9" y1="2828.2" x2="2370.5" y2="3278.1" href="#P"><stop stop-color="#444b8c"/><stop offset="1" stop-color="#26264f"/></linearGradient><linearGradient id="g17" x1="935.6" y1="3201.2" x2="935.6" y2="2564.6" href="#P"><stop stop-color="#ff9085"/><stop offset="1" stop-color="#fb6fbb"/></linearGradient><linearGradient id="g18" x1="1542.8" y1="1811.6" x2="2630" y2="3109.7" href="#P"><stop stop-color="#aa80f9"/><stop offset="1" stop-color="#6165d7"/></linearGradient><linearGradient id="g19" x1="1389.5" y1="2919.3" x2="2098.3" y2="2919.3" href="#P"><stop stop-color="#aa80f9"/><stop offset="1" stop-color="#6165d7"/></linearGradient><linearGradient id="g20" x1="322.2" y1="3549.1" x2="1031.7" y2="3549.1" href="#P"><stop stop-color="#fcb148"/><stop offset=".3" stop-color="#ffc444"/><stop offset=".9" stop-color="#f8924f"/><stop offset="1" stop-color="#f8924f"/></linearGradient><linearGradient id="g21" x1="989.4" y1="3489" x2="1026.8" y2="3802.1" href="#P"><stop stop-color="#ffdb44"/><stop offset="1" stop-color="#feef06"/></linearGradient><linearGradient id="g22" x1="985.6" y1="3475.2" x2="997.1" y2="3571.4" href="#P"><stop stop-color="#ffdb44"/><stop offset="1" stop-color="#feef06"/></linearGradient><linearGradient id="g23" x1="387.1" y1="3634.1" x2="375.7" y2="3538.3" href="#P"><stop offset="0" stop-color="#f36f56"/><stop offset=".7" stop-color="#ffc444"/><stop offset="1" stop-color="#f57e53"/></linearGradient><linearGradient id="g24" x1="236.5" y1="3477.3" x2="946" y2="3477.3" href="#P"><stop stop-color="#fcb148"/><stop offset=".3" stop-color="#ffc444"/><stop offset=".9" stop-color="#f8924f"/><stop offset="1" stop-color="#f8924f"/></linearGradient><linearGradient id="g25" x1="903.6" y1="3417.1" x2="941" y2="3730.3" href="#P"><stop stop-color="#ffdb44"/><stop offset="1" stop-color="#feef06"/></linearGradient><linearGradient id="g26" x1="899.9" y1="3403.4" x2="911.4" y2="3499.5" href="#P"><stop stop-color="#ffdb44"/><stop offset="1" stop-color="#feef06"/></linearGradient><linearGradient id="g27" x1="301.4" y1="3562.3" x2="290" y2="3466.4" href="#P"><stop offset="0" stop-color="#f36f56"/><stop offset=".7" stop-color="#ffc444"/><stop offset="1" stop-color="#f57e53"/></linearGradient><linearGradient id="g28" x1="310.4" y1="3405.6" x2="1020" y2="3405.6" href="#P"><stop stop-color="#fcb148"/><stop offset=".3" stop-color="#ffc444"/><stop offset=".9" stop-color="#f8924f"/><stop offset="1" stop-color="#f8924f"/></linearGradient><linearGradient id="g29" x1="977.6" y1="3345.5" x2="1015" y2="3658.6" href="#P"><stop stop-color="#ffdb44"/><stop offset="1" stop-color="#feef06"/></linearGradient><linearGradient id="g30" x1="973.9" y1="3331.7" x2="985.4" y2="3427.9" href="#P"><stop stop-color="#ffdb44"/><stop offset="1" stop-color="#feef06"/></linearGradient><linearGradient id="g31" x1="375.4" y1="3490.6" x2="363.9" y2="3394.8" href="#P"><stop offset="0" stop-color="#f36f56"/><stop offset=".7" stop-color="#ffc444"/><stop offset="1" stop-color="#f57e53"/></linearGradient><linearGradient id="g32" x1="355.3" y1="3333.8" x2="1064.9" y2="3333.8" href="#P"><stop stop-color="#fcb148"/><stop offset=".3" stop-color="#ffc444"/><stop offset=".9" stop-color="#f8924f"/><stop offset="1" stop-color="#f8924f"/></linearGradient><linearGradient id="g33" x1="1022.5" y1="3273.6" x2="1059.9" y2="3586.8" href="#P"><stop stop-color="#ffdb44"/><stop offset="1" stop-color="#feef06"/></linearGradient><linearGradient id="g34" x1="1018.8" y1="3259.9" x2="1030.3" y2="3356.1" href="#P"><stop stop-color="#ffdb44"/><stop offset="1" stop-color="#feef06"/></linearGradient><linearGradient id="g35" x1="420.3" y1="3418.8" x2="408.8" y2="3323" href="#P"><stop offset="0" stop-color="#f36f56"/><stop offset=".7" stop-color="#ffc444"/><stop offset="1" stop-color="#f57e53"/></linearGradient><linearGradient id="g36" x1="322.2" y1="3256.3" x2="1031.7" y2="3256.3" href="#P"><stop stop-color="#fcb148"/><stop offset=".3" stop-color="#ffc444"/><stop offset=".9" stop-color="#f8924f"/><stop offset="1" stop-color="#f8924f"/></linearGradient><linearGradient id="g37" x1="989.4" y1="3196.1" x2="1026.8" y2="3509.3" href="#P"><stop stop-color="#ffdb44"/><stop offset="1" stop-color="#feef06"/></linearGradient><linearGradient id="g38" x1="985.6" y1="3182.4" x2="997.1" y2="3278.5" href="#P"><stop stop-color="#ffdb44"/><stop offset="1" stop-color="#feef06"/></linearGradient><linearGradient id="g39" x1="387.1" y1="3341.3" x2="375.7" y2="3245.5" href="#P"><stop offset="0" stop-color="#f36f56"/><stop offset=".7" stop-color="#ffc444"/><stop offset="1" stop-color="#f57e53"/></linearGradient><linearGradient id="g40" x1="236.5" y1="3184.4" x2="946" y2="3184.4" href="#P"><stop stop-color="#fcb148"/><stop offset=".3" stop-color="#ffc444"/><stop offset=".9" stop-color="#f8924f"/><stop offset="1" stop-color="#f8924f"/></linearGradient><linearGradient id="g41" x1="903.6" y1="3124.3" x2="941" y2="3437.4" href="#P"><stop stop-color="#ffdb44"/><stop offset="1" stop-color="#feef06"/></linearGradient><linearGradient id="g42" x1="899.9" y1="3110.5" x2="911.4" y2="3206.7" href="#P"><stop stop-color="#ffdb44"/><stop offset="1" stop-color="#feef06"/></linearGradient><linearGradient id="g43" x1="301.4" y1="3269.4" x2="290" y2="3173.6" href="#P"><stop offset="0" stop-color="#f36f56"/><stop offset=".7" stop-color="#ffc444"/><stop offset="1" stop-color="#f57e53"/></linearGradient><linearGradient id="g44" x1="310.4" y1="3112.8" x2="1020" y2="3112.8" href="#P"><stop stop-color="#fcb148"/><stop offset=".3" stop-color="#ffc444"/><stop offset=".9" stop-color="#f8924f"/><stop offset="1" stop-color="#f8924f"/></linearGradient><linearGradient id="g45" x1="977.6" y1="3052.6" x2="1015" y2="3365.8" href="#P"><stop stop-color="#ffdb44"/><stop offset="1" stop-color="#feef06"/></linearGradient><linearGradient id="g46" x1="973.9" y1="3038.9" x2="985.4" y2="3135.1" href="#P"><stop stop-color="#ffdb44"/><stop offset="1" stop-color="#feef06"/></linearGradient><linearGradient id="g47" x1="375.4" y1="3197.8" x2="363.9" y2="3102" href="#P"><stop offset="0" stop-color="#f36f56"/><stop offset=".7" stop-color="#ffc444"/><stop offset="1" stop-color="#f57e53"/></linearGradient><linearGradient id="g48" x1="272" y1="3040.9" x2="981.5" y2="3040.9" href="#P"><stop stop-color="#fcb148"/><stop offset=".3" stop-color="#ffc444"/><stop offset=".9" stop-color="#f8924f"/><stop offset="1" stop-color="#f8924f"/></linearGradient><linearGradient id="g49" x1="939.1" y1="2980.8" x2="976.5" y2="3293.9" href="#P"><stop stop-color="#ffdb44"/><stop offset="1" stop-color="#feef06"/></linearGradient><linearGradient id="g50" x1="935.4" y1="2967" x2="946.9" y2="3063.2" href="#P"><stop stop-color="#ffdb44"/><stop offset="1" stop-color="#feef06"/></linearGradient><linearGradient id="g51" x1="336.9" y1="3126" x2="325.5" y2="3030.1" href="#P"><stop offset="0" stop-color="#f36f56"/><stop offset=".7" stop-color="#ffc444"/><stop offset="1" stop-color="#f57e53"/></linearGradient><linearGradient id="g52" x1="1011.3" y1="3048.2" x2="1413.9" y2="3614.2" href="#P"><stop stop-color="#fcb148"/><stop offset=".3" stop-color="#ffc444"/><stop offset=".9" stop-color="#f8924f"/><stop offset="1" stop-color="#f8924f"/></linearGradient><linearGradient id="g53" x1="1418.9" y1="3550" x2="1203.3" y2="3745.7" href="#P"><stop stop-color="#ffdb44"/><stop offset="1" stop-color="#feef06"/></linearGradient><linearGradient id="g54" x1="1442.1" y1="3533.3" x2="1374" y2="3595.1" href="#P"><stop stop-color="#ffdb44"/><stop offset="1" stop-color="#feef06"/></linearGradient><linearGradient id="g55" x1="970.4" y1="3148.7" x2="1040.3" y2="3085.3" href="#P"><stop offset="0" stop-color="#f36f56"/><stop offset=".7" stop-color="#ffc444"/><stop offset="1" stop-color="#f57e53"/></linearGradient><linearGradient id="g56" x1="2559" y1="2438.3" x2="2840.7" y2="2864.1" href="#P"><stop stop-color="#aa80f9"/><stop offset="1" stop-color="#6165d7"/></linearGradient><linearGradient id="g57" x1="3454.6" y1="3034.6" x2="3043.2" y2="3729.4" href="#P"><stop stop-color="#aa80f9"/><stop offset="1" stop-color="#6165d7"/></linearGradient><linearGradient id="g58" x1="3221.9" y1="2746.9" x2="3156.6" y2="2977.1" href="#P"><stop offset="0" stop-color="#e38ddd"/><stop offset="1" stop-color="#9571f6"/></linearGradient><linearGradient id="g59" x1="3455.5" y1="3034.8" x2="3039.6" y2="3737.3" href="#P"><stop offset="0" stop-color="#e38ddd"/><stop offset="1" stop-color="#9571f6"/></linearGradient><linearGradient id="g60" x1="3066.1" y1="2863.5" x2="3233.5" y2="3706.8" href="#P"><stop stop-color="#ab316d"/><stop offset="1" stop-color="#792d3d"/></linearGradient><linearGradient id="g61" x1="2920.3" y1="2847.5" x2="3216.8" y2="2803.6" href="#P"><stop stop-color="#ab316d"/><stop offset="1" stop-color="#792d3d"/></linearGradient><linearGradient id="g62" x1="2534.3" y1="2839.3" x2="2817.3" y2="2797.5" href="#P"><stop stop-color="#ab316d"/><stop offset="1" stop-color="#792d3d"/></linearGradient><linearGradient id="g63" x1="2759" y1="2805.2" x2="3388.1" y2="2712.1" href="#P"><stop stop-color="#ab316d"/><stop offset="1" stop-color="#792d3d"/></linearGradient><linearGradient id="g64" x1="3160.4" y1="2743.4" x2="3015.1" y2="2894.5" href="#P"><stop stop-color="#ab316d"/><stop offset="1" stop-color="#792d3d"/></linearGradient><linearGradient id="g65" x1="3156" y1="2752.5" x2="3023.5" y2="2890.2" href="#P"><stop stop-color="#ab316d"/><stop offset="1" stop-color="#792d3d"/></linearGradient><linearGradient id="g66" x1="2695.9" y1="2595.4" x2="3073.2" y2="2539.6" href="#P"><stop stop-color="#ab316d"/><stop offset="1" stop-color="#792d3d"/></linearGradient><linearGradient id="g67" x1="2711.9" y1="2659.6" x2="3113" y2="2600.3" href="#P"><stop stop-color="#ab316d"/><stop offset="1" stop-color="#792d3d"/></linearGradient><linearGradient id="g68" x1="2635" y1="2824.2" x2="2988" y2="2772" href="#P"><stop stop-color="#ab316d"/><stop offset="1" stop-color="#792d3d"/></linearGradient></defs><style>.lightgray{fill:#f4f7fa}.a{fill:#f4b798}.b{fill:url(#g1)}.c{fill:#fff}.d{fill:url(#g2)}.e{fill:url(#g3)}.f{fill:url(#g4)}.g{fill:url(#g5)}.h{fill:url(#g6)}.i{fill:url(#g7)}.j{opacity:.3;mix-blend-mode:multiply;fill:url(#g8)}.k{fill:url(#g9)}.l{fill:url(#g10)}.m{fill:url(#g11)}.n{fill:url(#g12)}.o{fill:url(#g13)}.p{fill:#d8dee8}.q{fill:#26264f}.r{fill:url(#g14)}.s{fill:url(#g15)}.t{fill:url(#g16)}.u{fill:url(#g17)}.v{opacity:.3;mix-blend-mode:multiply;fill:url(#g18)}.w{opacity:.3;mix-blend-mode:multiply;fill:url(#g19)}.x{opacity:.4;mix-blend-mode:multiply;fill:#f4f7fa}.y{fill:url(#g20)}.z{fill:url(#g21)}.A{fill:url(#g22)}.B{fill:#fcb048}.C{fill:url(#g23)}.D{fill:url(#g24)}.E{fill:url(#g25)}.F{fill:url(#g26)}.G{fill:url(#g27)}.H{fill:url(#g28)}.I{fill:url(#g29)}.J{fill:url(#g30)}.K{fill:url(#g31)}.L{fill:url(#g32)}.M{fill:url(#g33)}.N{fill:url(#g34)}.O{fill:url(#g35)}.P{fill:url(#g36)}.Q{fill:url(#g37)}.R{fill:url(#g38)}.S{fill:url(#g39)}.T{fill:url(#g40)}.U{fill:url(#g41)}.V{fill:url(#g42)}.W{fill:url(#g43)}.X{fill:url(#g44)}.Y{fill:url(#g45)}.Z{fill:url(#g46)}.a0{fill:url(#g47)}.a1{fill:url(#g48)}.a2{fill:url(#g49)}.a3{fill:url(#g50)}.a4{fill:url(#g51)}.a5{fill:url(#g52)}.a6{fill:url(#g53)}.a7{fill:url(#g54)}.a8{fill:url(#g55)}.a9{fill:url(#g56)}.aa{fill:url(#g57)}.ab{fill:url(#g58)}.ac{opacity:.3;mix-blend-mode:multiply;fill:url(#g59)}.ad{fill:url(#g60)}.ae{fill:url(#g61)}.af{fill:url(#g62)}.ag{fill:url(#g63)}.ah{fill:url(#g64)}.ai{fill:url(#g65)}.aj{fill:url(#g66)}.ak{fill:url(#g67)}.al{fill:url(#g68)}</style><path class="a" d="m3615.1 1905.3c-62 1017.8-1179.9 1920-2075.8 1742.8-524.4-103.7-872.9-557.4-1016.3-744.2-59.2-76.9-330-439.8-439.8-1003.5-59.6-306.2-180.6-927 108.8-1342.3 525.3-753.7 2311.7-700.6 3066.3 249.7 65.2 82.1 392.5 510.7 356.8 1097.5z"/><path class="b" d="m2771.1 3124.5c-107.9-123.7-248.7-322.8-295.5-590.1-53.8-307 65.4-423.4 67.3-776.6 2.6-504.2-335.4-725.6-201-936.3 65.6-102.7 211-164.3 327.6-138.3 332.9 74 598.4 897.2 323.6 1378.5-124.3 217.7-291.5 268.8-352.5 508.3-54 211.6 44.9 418.9 130.5 554.5z"/><g clip-path="url(#cp1)"><g style="mix-blend-mode:soft-light"><path class="c" d="m2584.7 2775.9c-10.3-67.2-14.7-135.6-13.3-203.3 3.3-155.8 37.5-255 80.8-380.6 28.1-81.6 60-174.1 89-299.6 54.1-234.7 67.8-314.9 61-431.6-13.5-231.1-100.6-406.5-151.4-490.5-72-119.2-165.7-221.9-278.4-305.4l2.7-3.7c113.2 83.9 207.3 187.1 279.6 306.8 50.9 84.3 138.4 260.5 152 492.6 6.9 117.2-6.9 197.6-61.1 432.8-29 125.7-61 218.3-89.2 300.1-43.1 125.2-77.3 224.2-80.5 379.2-1.4 67.5 3 135.6 13.2 202.5z"/><path class="c" d="m2781.8 1302.8l-1.5-3.4c-65.2-146.8-200.2-202.6-302-223.5-110.5-22.7-206.9-10.5-207.9-10.3l-0.6-4.5c1-0.1 98-12.5 209.3 10.4 102 20.9 237.2 76.6 303.7 222.6 11-14.8 59.5-83.5 87.1-183.1 28.8-103.6 40.3-262.7-68.1-432.7l3.8-2.5c109.3 171.5 97.7 332.1 68.6 436.5-31.4 113.2-89.5 186.8-90.1 187.6z"/><path class="c" d="m2761.4 1829.5c-2 0-3 0-3.1 0h-1.9l-0.3-1.9c-23.3-161.3-101.6-254.4-163.2-304-66.8-53.8-128.8-69.6-129.4-69.8l1-4.4c0.7 0.2 63.5 16.2 131.1 70.6 62 49.9 140.8 143.3 164.7 305q0.3 0 0.6 0c28.2 0 285.7-6.3 410.3-229.5l3.9 2.2c-69.3 124.1-178.9 180.6-258.7 206-76.2 24.3-140.4 25.8-155 25.8z"/><path class="c" d="m2741.4 2173.4c-48.3 0-77.2-9.9-77.5-10l-1.6-0.6 0.1-1.6c1.9-174.7-190-378.1-192-380.2l3.3-3.1c1.9 2.1 194 205.5 193.2 381.7 8.8 2.7 55 15.3 124.2 5.9 70.8-9.6 180.8-44.9 302.7-158.6l3.1 3.3c-122.9 114.6-234 150.2-305.5 159.8-18.4 2.5-35.1 3.4-50 3.4z"/></g></g><path class="d" d="m2529.7 2961.1c-56.8-89.8-129.8-236.7-108.2-404.7 37.5-293.2 320.4-320.9 453-674 106.9-284.8-20.7-417.1 135.9-642.6 26.2-37.7 162.6-242.1 334.8-226.6 97.1 8.7 162.5 83.2 174.8 97.2 185.4 211.5 97.8 702.6-154.2 1016.8-144.8 180.6-219.3 173.1-499.6 430.8-164.6 151.4-272.5 302.3-336.5 403.1z"/><g clip-path="url(#cp2)"><g style="mix-blend-mode:soft-light"><path class="c" d="m2546.5 3089.9c-49.6-251.1-24.1-444.8 75.9-575.5 49-64 97.9-91.6 149.6-120.7 55.6-31.3 113.1-63.7 172.4-145.6 57.6-79.6 66.3-136.4 77.3-208.4 9.9-64.8 22.3-145.4 74.6-268 45.9-107.5 87.6-166.3 124.3-218.2 39.8-56.2 71.2-100.6 93.1-186 35.9-139.5 20.7-292.5-45-454.9l4.2-1.7c66.1 163.3 81.3 317.3 45.2 457.8-22.2 86.2-53.8 130.8-93.8 187.4-36.6 51.7-78.1 110.3-123.8 217.3-52.2 122.1-64.5 202.5-74.3 267-11.1 72.6-19.9 129.9-78.1 210.3-59.9 82.7-117.9 115.4-173.9 146.9-51.3 28.9-99.8 56.2-148.2 119.5-99.2 129.7-124.4 322.1-75.1 572z"/><path class="c" d="m3204.5 1580.6l-0.3-3c-0.3-3.6-32.2-367.5-205.9-449.9l1.9-4.1c167.6 79.5 204.8 415.2 208.3 450.7 177.1-69.6 279.4-191 334-280.9 59.5-97.9 76.9-180.4 77.1-181.2l4.4 0.9c-0.2 0.8-17.7 84.1-77.6 182.6-55.3 91-159 214.1-339.1 283.8z"/><path class="c" d="m3053.5 1905.5q-1.7 0-1.8 0h-1.9l-0.3-1.9c-12.8-97.4-57.5-203.4-92.8-275.2-38.2-77.8-73.9-133.2-74.2-133.8l3.7-2.4c0.4 0.5 36.2 56.2 74.6 134.2 35.2 71.6 79.7 177.2 92.9 274.6 14.4 0 107.1-1.6 224.4-38.5 117.2-36.8 283.8-117.4 411.3-292l3.6 2.6c-128.3 175.7-295.8 256.8-413.7 293.8-118.4 37.2-212 38.6-225.8 38.6z"/><path class="c" d="m2952.2 2379.9c-81 0-129-11-130-11.2l-2.3-0.6 0.6-2.2c61.3-208.3-96.2-443-97.8-445.3l3.7-2.6c1.6 2.4 159.2 237.1 99.1 446.8 25.9 5.4 263.8 48.7 572.5-89.8l1.9 4.1c-184.2 82.6-343.3 100.8-447.7 100.8z"/></g></g><path class="e" d="m2491.6 2880.5c37.4-61.3 101.6-154.3 202.1-246.2 178.7-163.4 293.6-160.2 345-286.7 53.2-131-44.8-196.4 22-345.7 5.7-12.6 78.6-170.1 202.7-175.4 86.8-3.8 152 69 182.5 103.2 118.8 132.5 187.8 381.8 71.7 568.3-110.1 176.8-330.9 208.1-401.2 217.6-123.3 16.7-167.7-15.3-291.7 5-150.7 24.7-263.2 101.2-333.1 159.9z"/><path class="f" d="m881.8 2931.2c-280.2-257.7-354.8-250.2-499.6-430.7-252-314.3-339.6-805.3-154.1-1016.9 12.2-13.9 77.6-88.5 174.7-97.2 172.3-15.5 308.7 188.9 334.9 226.6 156.6 225.5 29 357.8 135.9 642.6 132.5 353.1 415.4 380.8 453 674 21.5 168.1-51.4 314.9-108.2 404.7-64.1-100.8-172-251.7-336.6-403.1z"/><g clip-path="url(#cp3)"><g style="mix-blend-mode:soft-light"><path class="c" d="m1201.5 3463.1l-4.4-0.8c49.4-249.8 24.1-442.3-75.1-572-48.4-63.3-96.9-90.6-148.2-119.5-56-31.5-114-64.2-173.8-146.8-58.3-80.5-67.1-137.8-78.1-210.4-9.9-64.5-22.2-144.9-74.3-266.9-45.7-107.1-87.2-165.7-123.8-217.4-40.1-56.5-71.7-101.2-93.9-187.4-36.1-140.5-20.9-294.5 45.2-457.8l4.2 1.7c-65.7 162.4-80.9 315.4-45 454.9 22 85.5 53.4 129.8 93.1 186 36.8 51.9 78.4 110.7 124.3 218.2 52.4 122.6 64.7 203.2 74.6 268 11 72 19.7 128.8 77.3 208.4 59.3 81.9 116.8 114.3 172.4 145.6 51.8 29.1 100.6 56.7 149.6 120.7 100 130.8 125.5 324.4 75.9 575.5z"/><path class="c" d="m543.5 1953.8l-2.8-1c-180.1-69.8-283.8-192.9-339.1-283.9-59.9-98.5-77.4-181.8-77.6-182.6l4.4-0.9c0.2 0.8 17.6 83.4 77.2 181.3 54.6 89.9 156.9 211.3 334 280.8 3.4-35.4 40.6-371.2 208.2-450.7l2 4.1c-173.8 82.4-205.7 446.3-206 449.9z"/><path class="c" d="m694.5 2278.7c-13.8 0-107.3-1.4-225.8-38.6-117.9-37-285.4-118-413.7-293.8l3.7-2.6c127.5 174.7 294.1 255.3 411.4 292.1 117.2 36.8 209.8 38.4 224.2 38.4 13.2-97.4 57.8-203 93-274.6 38.3-78 74.1-133.7 74.5-134.2l3.8 2.4c-0.4 0.6-36.1 56.1-74.3 133.9-35.3 71.7-80 177.7-92.8 275.1l-0.3 1.9h-1.9q-0.1 0-1.8 0z"/><path class="c" d="m795.8 2753.1c-104.4 0-263.5-18.2-447.6-100.8l1.8-4.1c308.7 138.5 546.6 95.2 572.5 89.8-60-209.7 97.5-444.4 99.1-446.7l3.7 2.5c-1.6 2.3-159.1 237.1-97.8 445.3l0.7 2.2-2.3 0.6c-1.1 0.3-49.1 11.2-130.1 11.2z"/></g></g><path class="g" d="m923.3 3093.8c-124-20.3-168.4 11.7-291.7-5-70.3-9.5-291.1-40.8-401.2-217.6-116.1-186.5-47-435.8 71.7-568.3 30.6-34.2 95.8-106.9 182.5-103.2 124.1 5.3 197.1 162.8 202.7 175.4 66.8 149.4-31.2 214.7 22 345.7 51.4 126.5 166.4 123.3 345 286.7 100.5 91.9 164.8 184.9 202.1 246.2-69.9-58.7-182.4-135.2-333.1-159.9z"/><path class="h" d="m2141 1244.6q-1.2 0.1-2.4 0.1c-13.3 0-24.5-10.8-25.8-25.2-22.7-255.9-100.4-499-218.7-684.6-104.9-164.4-229.7-262.5-333.9-262.5q-0.2 0-0.4 0c-379.8 0.8-459.2 937.4-460 946.9-1.2 15.3-13.7 26.6-28 25.3-14.3-1.3-24.9-14.8-23.7-30.1 3.3-40.7 84.6-996.9 511.6-997.8q0.2 0 0.5 0c123.2 0 260.4 104.5 376.7 286.8 123.2 193.2 204 445.6 227.5 710.7 1.4 15.3-9.1 28.9-23.4 30.4z"/><path class="i" d="m503.8 3066.8l214.7-1922.4 141.6-37.3 499.1 1338.6-302.9 998.4-500-271.8c-36.4-19.8-57.4-62-52.5-105.5z"/><path class="j" d="m1056.3 3444.1l-36.9-20c-149.6-127.6-275.4-289.8-284.7-483.5-8.5-177.9 89.2-213.7 134-478.1 53.8-317.9-57.3-444.7-90.7-900.5-7.9-107.1-13-254.2-1.4-432.9l83.5-22 499.1 1338.6z"/><path class="k" d="m860.1 1107.1l1882.7 102.5 598.4 2036.8-2284.9 197.7z"/><g style="opacity:.3;mix-blend-mode:multiply"><path class="l" d="m3341.2 3246.4l-2173.1 188c28-102.4 75.2-201.3 152.7-280.4 176.3-179.9 352.9-97.8 613.6-259.9 247.5-153.8 524.8-499.1 479.7-798.3-59.2-393.1-719.9-496.8-695.7-817 4-54.1 26-96.6 42.6-122.6l981.8 53.4z"/></g><path class="m" d="m1437.5 1290.5c-11.7 0-22.4-8.7-25.2-21.5-5.3-24.3-127.8-597.5 44.9-878.8 49.5-80.6 118.7-129.8 205.6-146.3 446.4-84.5 721.3 945.4 732.7 989.3 3.9 14.8-4.1 30.1-17.9 34.3-13.8 4.2-28.1-4.5-32-19.3-2.7-10.2-273.2-1025.4-673.8-949.4-73.3 13.8-129.3 53.8-171.3 122.1-160.5 261.5-38.9 829.7-37.7 835.4 3.3 15-5.4 29.9-19.3 33.5q-3 0.7-6 0.7z"/><path class="n" d="m1437.7 1372.5c-40 0-72.4-34.8-72.4-77.8 0-43 32.4-77.8 72.4-77.8 40.1 0 72.5 34.8 72.5 77.8 0 43-32.4 77.8-72.5 77.8z"/><path class="o" d="m2382.8 1365.3c-40.1 0-72.5-34.8-72.5-77.8 0-43.1 32.4-77.9 72.5-77.9 40 0 72.4 34.8 72.4 77.9 0 43-32.4 77.8-72.4 77.8z"/><path fill-rule="evenodd" class="p" d="m2882.9 2262l-387.4 295.2c-19.1 14.5-45.6 10.1-59.7-10.1l-509.1-728.9c-17-24.4-7.9-59.5 18.3-70.9l312-136.2c15.4-6.8 33.1-3.4 45.4 8.6l584.5 570c20.5 20 18.5 55.1-4 72.3zm-662.4-521.5c-18.6-29.7-49.7-42.2-69.4-28-19.6 14.2-20.5 49.8-1.9 79.5 18.6 29.8 49.6 42.3 69.3 28.1 19.7-14.2 20.6-49.8 2-79.6z"/><path fill-rule="evenodd" class="lightgray" d="m2882.9 2254.2l-387.4 295.2c-19.1 14.5-45.6 10.1-59.7-10l-509.1-729c-17-24.4-7.9-59.4 18.3-70.9l312-136.2c15.4-6.7 33.1-3.4 45.4 8.6l584.5 570c20.5 20 18.5 55.2-4 72.3zm-662.4-521.4c-18.6-29.7-49.7-42.3-69.4-28.1-19.6 14.2-20.5 49.9-1.9 79.6 18.6 29.7 49.6 42.2 69.3 28 19.7-14.2 20.6-49.8 2-79.5z"/><path class="q" d="m2097 1672.3c-1.9 0-3.6-1.1-4.4-2.9-20.3-47.7-47.6-89-81.2-122.6-92.1-92-211-106.4-326.1-120.4-114.4-14-222.6-27.1-287.1-118.2-16.4-23.1-41.8-64.7-28.2-84.8 5.5-8 16.4-11.7 32.4-11 2.7 0.2 4.7 2.4 4.6 5-0.1 2.7-2.3 4.8-5 4.6-8.6-0.4-19.7 0.5-24 6.8-7.3 10.7 3.7 39.6 28 73.8 62.1 87.7 168.2 100.6 280.5 114.2 116.6 14.2 237.2 28.9 331.7 123.3 34.5 34.4 62.5 76.7 83.2 125.6 1.1 2.4-0.1 5.2-2.5 6.2q-0.9 0.4-1.9 0.4z"/><path class="q" d="m2146.9 1768.8c-1.2 0-2.4-0.5-3.4-1.4-1.8-1.9-1.8-4.9 0.1-6.8 0.4-0.4 40.4-40.9 40.2-94.9-0.1-33.2-15.2-64.8-44.9-93.9-62.9-61.8-229.7-133.3-376.9-196.4-89.9-38.5-174.7-74.9-230.5-106.3-12.6-7.1-26-13.8-39.7-20-2.4-1.1-3.5-4-2.4-6.4 1.1-2.4 3.9-3.5 6.4-2.4 13.9 6.4 27.6 13.2 40.4 20.5 55.3 31.1 140 67.4 229.6 105.8 147.9 63.4 315.7 135.3 379.8 198.3 31.6 31 47.7 65 47.8 100.8 0.1 58.1-41.3 99.9-43.1 101.7-0.9 0.9-2.1 1.4-3.4 1.4z"/><path class="c" d="m2882.9 2254.2l-352.8 268.8c-78.3-114.1-92.9-204.9-86.5-273.2 12.8-136.6 110.1-188.9 81.1-286.3-32.7-109.9-174.4-103-260.8-261.3-16.5-30.5-27.4-60.3-34.7-86.8l27.8-12.1c15.4-6.7 33.1-3.4 45.4 8.6l584.5 570c20.5 20 18.5 55.2-4 72.3z"/><path fill-rule="evenodd" class="p" d="m2362.4 1987.9c32 53 25.4 96.9-0.1 114.7-26.9 18.7-65.5 4.7-94.2-42.8-27.3-45.2-28.8-92.9 1.4-113.9 30.4-21.2 66.8-1.2 92.9 42zm-64.6 48.9c16 26.5 33.8 41.2 45.8 32.9 11.6-8.1 7-29.3-10.2-57.7-15.6-25.7-32.5-42.1-45.2-33.2-12.2 8.5-5.7 32.7 9.6 58zm130.7 170.2l-57-332.3 22.3-15.5 56.7 332.4zm124.5-202.5c32 52.9 25.3 96.9-0.2 114.7-26.6 18.5-65.1 4.5-94.1-42.8-27.4-45.2-28.8-92.9 1.3-113.9 30.4-21.2 66.8-1.2 93 42zm-64.3 48.7c15.7 26.7 33.5 41.4 45.4 33.1 11.7-8.2 7-29.3-10.2-57.7-15.5-25.7-32.1-42.3-44.9-33.4-12.5 8.7-5.6 32.7 9.7 58z"/><path class="p" d="m2440.7 2390.8c-7.8 0-15.4-4.3-19.8-12-6.6-11.8-3.2-27.1 7.8-34.2l281.5-183.5c10.9-7.2 25.2-3.4 31.8 8.3 6.7 11.8 3.2 27.1-7.8 34.2l-281.5 183.6c-3.7 2.4-7.9 3.6-12 3.6z"/><path class="r" d="m2069.2 3451.6c0 25.5-18.1 47.5-40.4 48.9l-1568.8 95.8c-29.7 1.7-63.2-23.4-63.2-53.1v-1097.9c0-29.7 34.3-54.7 64-53.4l1568 67.1c22.3 0.9 40.4 22.6 40.4 48.1z"/><path class="s" d="m2098.3 3453.4c0 25.7-18.2 47.8-40.6 49.1l-1585.5 94c-29.9 1.7-54.4-21.2-54.4-51.1v-1103.2c0-29.8 24.5-53.2 54.4-52l1585.5 65.8c22.4 0.9 40.6 22.7 40.6 48.3z"/><path class="t" d="m2098.3 3384.4l-1680.5 98.6v-202l1680.5-86.2z"/><g style="opacity:.1;mix-blend-mode:multiply"><path fill-rule="evenodd" class="u" d="m913.7 2755c-1.9 125.4-80.3 190.5-167.6 190.2-95.1-0.4-171.3-73.3-169.5-193 1.7-113.9 73.4-195 180-187 103.4 7.7 158.7 87.5 157.1 189.8zm-225.8-2.4c-1 65.4 20.4 113 62.2 113.7 40.3 0.8 60.3-40.2 61.4-108.8 0.9-62.1-15-111-58.9-113.6-42.8-2.6-63.7 46.2-64.7 108.7zm88.3 403.1l302.9-548.5c5.8-10.5 17.2-16.7 29.2-15.8 22.2 1.7 35.3 25.7 24.6 45.3l-299.6 548.3c-5.2 9.5-14.8 15.5-25.6 16l-3.3 0.1c-23.9 1.1-39.8-24.5-28.2-45.4zm518.3-154.6c-1.7 116.1-69 179.7-143.7 182.9-80.3 3.6-145.1-60.5-144.3-170.8 1.6-105 62.7-183 153.6-180.6 88.5 2.4 135.9 73.7 134.4 168.5zm-192.4 7.6c-1.7 60.4 16.5 103.4 52.2 102.3 34.4-1 51.6-39.7 52.6-103.2 0.9-57.3-11.9-101.8-49.5-102.3-37.3-0.5-54.4 45.5-55.3 103.2z"/></g><path fill-rule="evenodd" class="c" d="m928.4 2749.2c-1.9 125.4-80.3 190.5-167.6 190.2-95.2-0.4-171.4-73.3-169.6-193.1 1.7-113.8 73.5-194.9 180-187 103.4 7.7 158.7 87.6 157.2 189.9zm-225.8-2.4c-1 65.4 20.4 112.9 62.2 113.7 40.2 0.7 60.3-40.3 61.3-108.9 1-62-15-110.9-58.9-113.6-42.8-2.5-63.7 46.3-64.6 108.8zm88.2 403l303-548.5c5.8-10.4 17.1-16.6 29.1-15.7 22.2 1.7 35.3 25.7 24.6 45.3l-299.6 548.3c-5.1 9.4-14.8 15.5-25.5 15.9l-3.4 0.2c-23.9 1-39.8-24.5-28.2-45.5zm518.4-154.5c-1.8 116.1-69.1 179.6-143.8 182.9-80.3 3.5-145.1-60.5-144.3-170.9 1.6-104.9 62.7-182.9 153.7-180.5 88.5 2.4 135.8 73.7 134.4 168.5zm-192.4 7.6c-1.8 60.4 16.4 103.3 52.1 102.3 34.5-1 51.7-39.8 52.6-103.2 0.9-57.4-11.9-101.9-49.4-102.3-37.4-0.5-54.5 45.5-55.3 103.2z"/><path class="v" d="m2098.3 2504.3v949.1c0 25.7-18.2 47.8-40.6 49.1l-149.4 8.8c-35.4-82.5-90.8-164.8-179.4-213.4-119.6-65.7-193.9-11.7-309.3-84.4-153.4-96.6-98-240-243.7-356.1-142-113.2-260.8-29.7-426.4-117.2-87-45.9-188.3-139.7-259.1-349.2l1567.3 65c22.4 0.9 40.6 22.7 40.6 48.3z"/><path class="w" d="m2098.3 2934.8v518.6c0 12.3-4.2 23.7-11 32.5-6.5 3.4-13.8 5.5-21.5 6.1l-676.3 49.6c39.6-8.6 41.6-41.5 41.6-41.5 0 0 0-554.3 0-572.8l48.9 46.4 36.3-38.3 38.2 36.3 36.3-38.2 38.3 36.3 36.2-38.3 38.3 36.3 36.3-38.2 38.2 36.3 36.3-38.3 38.2 36.3 36.3-38.2 38.3 36.2 36.3-38.2 38.2 36.3 36.3-38.2 38.2 36.2z"/><path class="c" d="m2184.9 2939v521.8c0 29.2-23.1 53.3-52.2 55.5l-214.4 15.7-463.4 33.9c39.6-8.6 40.5-41.5 40.5-41.5 0 0 0-554.3 0-572.8l49.8 46.4 26.1-27 10.9-11.3 38.4 36.3 36.3-38.2 38.3 36.3 36.3-38.3 38.2 36.3 36.3-38.2 38.3 36.3 36.3-38.3 38.2 36.3 36.3-38.2 38.2 36.2 36.3-38.2 38.3 36.3 36.2-38.3 39 36.3z"/><path class="p" d="m2117.9 3252.6v37.5c0 5.5-4.4 10.1-10 10.5l-83.6 4.7c-6 0.3-11.1-4.5-11.1-10.5v-38.4c0-5.7 4.4-10.3 10-10.5l83.7-3.8c6-0.3 11 4.5 11 10.5z"/><path class="p" d="m2117.9 3326.8v39.5c0 5.5-4.3 10.1-9.9 10.5l-83.6 5.3c-6.1 0.4-11.2-4.4-11.2-10.5v-40.1c0-5.6 4.3-10.2 9.9-10.5l83.6-4.7c6.1-0.4 11.2 4.4 11.2 10.5z"/><path class="p" d="m2107.8 3146.2l-83.6 3.8c-6 0.2-11-4.5-11-10.5v-69.5c0-5.7 4.5-10.3 10.1-10.5l83.7-3c5.9-0.2 10.9 4.5 10.9 10.5v68.7c0 5.6-4.5 10.2-10.1 10.5z"/><path class="p" d="m1944.1 3260.4v39.4c0 5.6-4.4 10.2-9.9 10.6l-340.6 19.2c-6.1 0.3-11.1-4.5-11.1-10.6v-43.2c0-5.6 4.4-10.3 10-10.5l340.6-15.4c6-0.2 11 4.5 11 10.5z"/><path class="p" d="m1944.1 3336.6v40.7c0 5.6-4.3 10.2-9.9 10.6l-340.5 21.7c-6.1 0.4-11.2-4.4-11.2-10.5v-43.3c0-5.6 4.3-10.2 9.9-10.5l340.6-19.2c6-0.4 11.1 4.4 11.1 10.5z"/><path class="p" d="m1934 3154l-340.5 15.4c-6 0.3-11-4.5-11-10.5v-73.4c0-5.7 4.4-10.3 10.1-10.5l340.6-12.3c5.9-0.2 10.9 4.6 10.9 10.5v70.3c0 5.6-4.4 10.3-10.1 10.5z"/><path class="x" d="m1917.9 3532l-463.2 33.9c39.6-8.6 40.7-41.5 40.7-41.5 0 0 0-554.3 0-572.8l49.8 46.4 26.1-27c21.8 19.7 39.3 51.3 44.1 101.4 16.2 166.9 94.4 155.9 186.7 162.2 92.3 6.3 134.7 113.1 97.4 195.6-16.7 36.9-9.9 74.1 18.4 101.8z"/><path class="y" d="m991.7 3551.6v68.4c0 22.1-138.1 40-308.4 40-170.3 0-308.4-17.9-308.4-40v-68.4z"/><path class="z" d="m683.3 3591.6c-170.5 0-308.4-17.9-308.4-40 0-22.1 137.9-40 308.4-40 170.5 0 308.4 17.9 308.4 40 0 22.1-137.9 40-308.4 40z"/><path class="A" d="m683.3 3594.4c-150.8 0-308.6-14.4-308.6-42.2 0-1.5 0.6-4.2 2.1-4.2 1.5 0 0.9 2.1 0.9 3.6 0 17.6 125.5 37.3 305.6 37.3 180.1 0 305.6-19.7 305.6-37.3 0-1.5 0.3-2.9 1.8-2.9 1.5 0 1.2 2 1.2 3.5 0 27.8-157.8 42.2-308.6 42.2z"/><path fill-rule="evenodd" class="B" d="m654.2 3553.8q4.5-3.1 9.7-6.2c3.4-2 7.8-3.8 13.2-5.5q8.1-2.4 20.3-4c8.2-1 18.3-1.6 30.5-1.6q17.9-0.1 33.5 1.1 15.7 1.2 27.6 3.6 11.9 2.5 19.4 6.1 7.5 3.5 8.9 8.2l34.7 0.3q3.8 0 6.7 0.6c1.9 0.4 2.8 0.9 2.8 1.5l0.1 2.9-44.7-0.4q-2.3 5.2-11.9 9.6-9.6 4.3-24.5 7.5l-16.3-2.2q-2.2-0.4-3.6-0.9-1.4-0.5-1.4-1.1 0-0.8 3.8-1.9 3.8-1 8.5-2.6 4.7-1.6 9.3-3.7 4.6-2.1 6.1-5.1l-105.3-1c-2.8 2-5.9 4-9.3 6q-5.2 2.9-13.7 5.3-8.5 2.4-21.2 3.8c-8.5 1-19.1 1.5-32 1.6-9.6 0-19-0.3-28.2-1.1q-13.8-1.2-24.6-3.5-10.7-2.3-17.6-5.8-6.8-3.4-7.6-7.8l-28.6-0.3c-2.5-0.1-4.8-0.3-6.8-0.6q-2.9-0.6-2.9-1.6l-0.1-2.8 39.1 0.4c1.8-3.1 5.3-5.7 10.7-7.9q8.1-3.4 19.8-6l13.1 1.8q6 0.9 6 2 0 0.6-2.5 1.5c-1.6 0.6-3.6 1.3-5.8 2.1-2.3 0.9-4.4 1.8-6.5 3q-3.2 1.7-4.8 3.8zm-96.4 3.9q1.2 2.8 5.2 4.8 3.9 2.1 9.9 3.4 6 1.3 13.4 1.9 7.4 0.6 15.6 0.6 9.5-0.1 16.6-0.8 7-0.8 12.3-2.1 5.4-1.4 9.4-3.1c2.6-1.2 5-2.4 7.1-3.8zm229.4-2.6c-0.8-1.9-2.7-3.5-5.7-5q-4.5-2.1-11.4-3.6-7-1.4-16.2-2.1-9.2-0.8-20.4-0.7c-6.6 0-12.3 0.3-17 0.9q-7.1 0.8-12.4 2.2c-3.5 1-6.5 2.1-8.9 3.3q-3.7 1.9-6.8 4z"/><path class="C" d="m988.1 3552.7q-1.3 1.3-2.3 2.6c-14.6-16.6-134.7-33.9-302.5-33.9-163.5 0-281.7 16.4-301 32.7q-1.2-1.4-2.5-2.7c22.9-23.4 166-35.5 303.5-35.5 140 0 285.9 12.6 304.8 36.8z"/><path class="D" d="m906 3479.8v68.4c0 22.1-138.1 40-308.4 40-170.3 0-308.4-17.9-308.4-40v-68.4z"/><path class="E" d="m597.6 3519.8c-170.6 0-308.4-17.9-308.4-40 0-22.2 137.8-40.1 308.4-40.1 170.5 0 308.4 17.9 308.4 40.1 0 22.1-137.9 40-308.4 40z"/><path class="F" d="m597.6 3522.5c-150.9 0-308.6-14.4-308.6-42.1 0-1.6 0.6-4.3 2.1-4.3 1.5 0 0.9 2.1 0.9 3.7 0 17.6 125.5 37.2 305.6 37.2 180.1 0 305.6-19.6 305.6-37.2 0-1.6 0.3-3 1.8-3 1.5 0 1.1 2 1.1 3.6 0 27.8-157.7 42.1-308.5 42.1z"/><path fill-rule="evenodd" class="B" d="m568.4 3482q4.6-3.1 9.7-6.2c3.4-2 7.9-3.9 13.3-5.5q8.1-2.5 20.3-4c8.1-1.1 18.3-1.6 30.5-1.7q17.8-0.1 33.5 1.1 15.7 1.3 27.6 3.7 11.9 2.4 19.4 6 7.4 3.6 8.9 8.2l34.7 0.4q3.8 0 6.6 0.6c2 0.4 2.9 0.9 2.9 1.5v2.8l-44.6-0.4q-2.4 5.3-12 9.6-9.5 4.4-24.5 7.6l-16.2-2.3q-2.2-0.3-3.6-0.8-1.4-0.5-1.4-1.1 0-0.9 3.8-1.9 3.7-1.1 8.5-2.6 4.7-1.6 9.3-3.7 4.5-2.2 6.1-5.1l-105.3-1.1q-4.2 3.1-9.4 6.1-5.1 2.9-13.6 5.3-8.5 2.3-21.2 3.8c-8.5 1-19.1 1.5-32 1.6q-14.5 0-28.3-1.1-13.8-1.2-24.5-3.5-10.7-2.4-17.6-5.8-6.8-3.4-7.7-7.9l-28.5-0.3c-2.6 0-4.8-0.2-6.8-0.6q-3-0.6-3-1.5v-2.9l39.1 0.4c1.7-3 5.3-5.6 10.7-7.9q8.1-3.3 19.8-5.9l13.1 1.8q6 0.8 6 1.9 0 0.6-2.5 1.5c-1.7 0.6-3.6 1.4-5.9 2.2q-3.3 1.2-6.5 2.9-3.1 1.7-4.7 3.8zm-96.5 3.9c0.8 1.9 2.6 3.5 5.2 4.9q4 2 10 3.3 5.9 1.3 13.4 2 7.4 0.6 15.6 0.5 9.5 0 16.5-0.8 7-0.8 12.4-2.1c3.6-0.9 6.7-1.9 9.3-3.1 2.7-1.1 5-2.4 7.2-3.8zm229.3-2.5c-0.8-1.9-2.7-3.6-5.6-5q-4.5-2.2-11.5-3.6-6.9-1.5-16.2-2.2-9.2-0.7-20.3-0.6c-6.6 0-12.3 0.3-17.1 0.8q-7.1 0.9-12.4 2.3c-3.4 0.9-6.4 2-8.9 3.3q-3.6 1.9-6.8 4z"/><path class="G" d="m902.3 3480.9q-1.2 1.2-2.3 2.6c-14.5-16.7-134.6-33.9-302.4-33.9-163.5 0-281.7 16.4-301.1 32.6q-1.1-1.4-2.5-2.6c22.9-23.4 166.1-35.5 303.6-35.5 140 0 285.8 12.5 304.7 36.8z"/><path class="H" d="m979.9 3408.1v68.4c0 22.1-138 40-308.3 40-170.4 0-308.4-17.9-308.4-40v-68.4z"/><path class="I" d="m671.5 3448.1c-170.5 0-308.3-17.8-308.3-40 0-22.1 137.8-40 308.3-40 170.6 0 308.4 17.9 308.4 40 0 22.2-137.8 40-308.4 40z"/><path class="J" d="m671.5 3450.9c-150.8 0-308.5-14.4-308.5-42.2 0-1.5 0.5-4.2 2.1-4.2 1.5 0 0.8 2.1 0.8 3.6 0 17.7 125.5 37.3 305.6 37.3 180.2 0 305.7-19.6 305.7-37.3 0-1.5 0.2-2.9 1.8-2.9 1.5 0 1.1 2 1.1 3.5 0 27.8-157.7 42.2-308.6 42.2z"/><path fill-rule="evenodd" class="B" d="m642.4 3410.4q4.5-3.2 9.7-6.2c3.4-2.1 7.9-3.9 13.2-5.6q8.2-2.4 20.4-4c8.1-1 18.3-1.6 30.4-1.6q17.9-0.1 33.6 1.1 15.7 1.2 27.6 3.7 11.9 2.4 19.4 6 7.4 3.6 8.8 8.2l34.8 0.3q3.7 0.1 6.6 0.7c1.9 0.3 2.9 0.8 2.9 1.5v2.8l-44.6-0.4q-2.4 5.2-12 9.6-9.6 4.4-24.5 7.5l-16.2-2.2q-2.2-0.3-3.6-0.9-1.4-0.5-1.4-1.1 0-0.8 3.7-1.9 3.8-1 8.6-2.6 4.7-1.5 9.3-3.7 4.5-2.1 6.1-5l-105.4-1.1c-2.7 2-5.9 4-9.3 6q-5.1 3-13.6 5.3-8.6 2.4-21.3 3.9c-8.4 0.9-19.1 1.5-31.9 1.5-9.7 0.1-19.1-0.3-28.3-1.1q-13.8-1.1-24.5-3.5-10.7-2.3-17.6-5.7-6.9-3.5-7.7-7.9l-28.6-0.3c-2.5 0-4.7-0.2-6.7-0.6q-3-0.6-3-1.5v-2.9l39.1 0.4c1.7-3 5.2-5.7 10.7-7.9q8.1-3.4 19.8-6l13.1 1.8q5.9 0.9 5.9 2 0 0.6-2.4 1.5c-1.7 0.6-3.6 1.3-5.9 2.2-2.2 0.8-4.4 1.8-6.5 2.9q-3.2 1.7-4.8 3.8zm-96.4 3.9c0.8 1.9 2.6 3.5 5.2 4.8q4 2.1 9.9 3.4 6 1.3 13.4 1.9 7.5 0.6 15.6 0.6 9.5 0 16.6-0.8 7-0.8 12.4-2.1 5.3-1.3 9.3-3.1c2.6-1.2 5-2.4 7.1-3.8zm229.4-2.6c-0.8-1.9-2.7-3.5-5.7-4.9q-4.5-2.2-11.4-3.7-6.9-1.4-16.2-2.1-9.2-0.7-20.3-0.7c-6.6 0-12.3 0.3-17.1 0.9q-7.1 0.8-12.4 2.3c-3.5 0.9-6.5 2-8.9 3.2q-3.7 1.9-6.8 4.1z"/><path class="K" d="m976.3 3409.2q-1.2 1.3-2.3 2.7c-14.5-16.7-134.7-33.9-302.4-33.9-163.6 0-281.8 16.3-301.1 32.6q-1.1-1.4-2.5-2.6c22.9-23.5 166.1-35.6 303.6-35.6 139.9 0 285.8 12.6 304.7 36.8z"/><path class="L" d="m1024.8 3336.3v68.4c0 22.1-138 40-308.4 40-170.3 0-308.3-17.9-308.3-40v-68.4z"/><path class="M" d="m716.4 3376.3c-170.5 0-308.3-17.9-308.3-40 0-22.1 137.8-40 308.3-40 170.6 0 308.4 17.9 308.4 40 0 22.1-137.8 40-308.4 40z"/><path class="N" d="m716.4 3379.1c-150.8 0-308.5-14.4-308.5-42.2 0-1.6 0.5-4.2 2-4.2 1.6 0 0.9 2.1 0.9 3.6 0 17.6 125.5 37.2 305.6 37.2 180.1 0 305.7-19.6 305.7-37.2 0-1.5 0.2-3 1.7-3 1.6 0 1.2 2.1 1.2 3.6 0 27.8-157.7 42.2-308.6 42.2z"/><path fill-rule="evenodd" class="B" d="m687.3 3338.5q4.5-3.1 9.7-6.2c3.4-2 7.9-3.9 13.2-5.5q8.2-2.5 20.4-4c8.1-1.1 18.3-1.6 30.4-1.7q17.9-0.1 33.6 1.2 15.6 1.2 27.6 3.6 11.9 2.5 19.4 6 7.4 3.6 8.8 8.2l34.7 0.4q3.8 0 6.7 0.6c1.9 0.4 2.9 0.9 2.9 1.5v2.9l-44.6-0.5q-2.4 5.3-12 9.6-9.6 4.4-24.5 7.6l-16.3-2.3q-2.1-0.3-3.5-0.8-1.4-0.5-1.4-1.1 0-0.9 3.7-1.9 3.8-1.1 8.5-2.6 4.8-1.6 9.4-3.7 4.5-2.1 6.1-5.1l-105.4-1q-4.2 3-9.3 6-5.2 2.9-13.7 5.3-8.5 2.3-21.2 3.8c-8.5 1-19.1 1.5-31.9 1.6-9.7 0-19.1-0.3-28.3-1.1q-13.8-1.2-24.5-3.5-10.7-2.4-17.6-5.8-6.9-3.4-7.7-7.9l-28.6-0.3q-3.7 0-6.7-0.6-3-0.5-3-1.5v-2.8l39.1 0.3c1.7-3 5.2-5.6 10.6-7.8q8.2-3.4 19.9-6l13.1 1.8q5.9 0.8 5.9 1.9 0 0.7-2.4 1.6c-1.7 0.6-3.6 1.3-5.9 2.1-2.2 0.8-4.4 1.8-6.5 2.9q-3.2 1.7-4.8 3.9zm-96.4 3.9c0.8 1.8 2.5 3.4 5.2 4.8q4 2 9.9 3.4 6 1.3 13.4 1.9 7.5 0.6 15.6 0.6 9.5-0.1 16.6-0.9 7-0.7 12.4-2.1c3.5-0.8 6.7-1.9 9.3-3 2.6-1.2 5-2.5 7.1-3.8zm229.4-2.6c-0.8-1.9-2.7-3.6-5.7-5q-4.5-2.1-11.4-3.6-6.9-1.5-16.2-2.2-9.2-0.7-20.3-0.6c-6.6 0-12.4 0.3-17.1 0.9q-7.1 0.8-12.4 2.2c-3.5 0.9-6.5 2-8.9 3.3q-3.7 1.9-6.8 4z"/><path class="O" d="m1021.2 3337.4q-1.2 1.2-2.3 2.6c-14.6-16.7-134.7-33.9-302.4-33.9-163.6 0-281.8 16.4-301.1 32.7q-1.2-1.4-2.5-2.7c22.9-23.4 166.1-35.5 303.6-35.5 139.9 0 285.8 12.5 304.7 36.8z"/><path class="P" d="m991.7 3258.8v68.4c0 22.1-138.1 40-308.4 40-170.3 0-308.4-17.9-308.4-40v-68.4z"/><path class="Q" d="m683.3 3298.8c-170.5 0-308.4-17.9-308.4-40 0-22.2 137.9-40.1 308.4-40.1 170.5 0 308.4 17.9 308.4 40.1 0 22.1-137.9 40-308.4 40z"/><path class="R" d="m683.3 3301.5c-150.8 0-308.6-14.4-308.6-42.1 0-1.6 0.6-4.3 2.1-4.3 1.5 0 0.9 2.1 0.9 3.7 0 17.6 125.5 37.2 305.6 37.2 180.1 0 305.6-19.6 305.6-37.2 0-1.6 0.3-3 1.8-3 1.5 0 1.2 2 1.2 3.6 0 27.8-157.8 42.1-308.6 42.1z"/><path fill-rule="evenodd" class="B" d="m654.2 3261q4.5-3.1 9.7-6.2c3.4-2 7.8-3.9 13.2-5.5q8.1-2.5 20.3-4c8.2-1.1 18.3-1.6 30.5-1.7q17.9-0.1 33.5 1.1 15.7 1.3 27.6 3.7 11.9 2.4 19.4 6 7.5 3.6 8.9 8.2l34.7 0.4q3.8 0 6.7 0.6c1.9 0.4 2.8 0.9 2.8 1.5l0.1 2.9-44.7-0.5q-2.3 5.3-11.9 9.6-9.6 4.4-24.5 7.6l-16.3-2.3q-2.2-0.3-3.6-0.8-1.4-0.5-1.4-1.1 0-0.9 3.8-1.9 3.8-1.1 8.5-2.6 4.7-1.6 9.3-3.7 4.6-2.2 6.1-5.1l-105.3-1.1c-2.8 2.1-5.9 4.1-9.3 6.1q-5.2 2.9-13.7 5.3-8.5 2.3-21.2 3.8c-8.5 1-19.1 1.5-32 1.6-9.6 0-19-0.4-28.2-1.1q-13.8-1.2-24.6-3.5-10.7-2.4-17.6-5.8-6.8-3.4-7.6-7.9l-28.6-0.3c-2.5 0-4.8-0.2-6.8-0.6q-2.9-0.5-2.9-1.5l-0.1-2.9 39.1 0.4c1.8-3 5.3-5.6 10.7-7.9q8.1-3.3 19.8-5.9l13.1 1.8q6 0.8 6 1.9 0 0.6-2.5 1.5c-1.6 0.6-3.6 1.4-5.8 2.2-2.3 0.8-4.4 1.8-6.5 2.9q-3.2 1.7-4.8 3.8zm-96.4 3.9q1.2 2.8 5.2 4.9 3.9 2 9.9 3.3 6 1.4 13.4 2 7.4 0.6 15.6 0.5 9.5 0 16.6-0.8 7-0.7 12.3-2.1c3.6-0.9 6.7-1.9 9.4-3.1 2.6-1.1 5-2.4 7.1-3.8zm229.4-2.5c-0.8-1.9-2.7-3.6-5.7-5q-4.5-2.2-11.4-3.6-7-1.5-16.2-2.2-9.2-0.7-20.4-0.6c-6.6 0-12.3 0.3-17 0.8q-7.1 0.9-12.4 2.3c-3.5 0.9-6.5 2-8.9 3.3q-3.7 1.9-6.8 4z"/><path class="S" d="m988.1 3259.9q-1.3 1.2-2.3 2.6c-14.6-16.7-134.7-33.9-302.5-33.9-163.5 0-281.7 16.4-301 32.6q-1.2-1.4-2.5-2.6c22.9-23.4 166-35.5 303.5-35.5 140 0 285.9 12.5 304.8 36.8z"/><path class="T" d="m906 3186.9v68.4c0 22.1-138.1 40-308.4 40-170.3 0-308.4-17.9-308.4-40v-68.4z"/><path class="U" d="m597.6 3226.9c-170.6 0-308.4-17.8-308.4-40 0-22.1 137.8-40 308.4-40 170.5 0 308.4 17.9 308.4 40 0 22.2-137.9 40-308.4 40z"/><path class="V" d="m597.6 3229.7c-150.9 0-308.6-14.4-308.6-42.2 0-1.5 0.6-4.2 2.1-4.2 1.5 0 0.9 2.1 0.9 3.6 0 17.6 125.5 37.3 305.6 37.3 180.1 0 305.6-19.7 305.6-37.3 0-1.5 0.3-2.9 1.8-2.9 1.5 0 1.1 2 1.1 3.5 0 27.8-157.7 42.2-308.5 42.2z"/><path fill-rule="evenodd" class="B" d="m568.4 3189.2q4.6-3.2 9.7-6.2c3.4-2.1 7.9-3.9 13.3-5.6q8.1-2.4 20.3-4c8.1-1 18.3-1.6 30.5-1.6q17.8-0.1 33.5 1.1 15.7 1.2 27.6 3.7 11.9 2.4 19.4 6 7.4 3.6 8.9 8.2l34.7 0.3q3.8 0.1 6.6 0.6c2 0.4 2.9 0.9 2.9 1.5v2.9l-44.6-0.4q-2.4 5.2-12 9.6-9.5 4.3-24.5 7.5l-16.2-2.2q-2.2-0.4-3.6-0.9-1.4-0.5-1.4-1.1 0-0.8 3.8-1.9 3.7-1 8.5-2.6 4.7-1.6 9.3-3.7 4.5-2.1 6.1-5.1l-105.3-1q-4.2 3.1-9.4 6-5.1 3-13.6 5.3-8.5 2.4-21.2 3.8c-8.5 1-19.1 1.5-32 1.6q-14.5 0.1-28.3-1.1-13.8-1.2-24.5-3.5-10.7-2.3-17.6-5.7-6.8-3.5-7.7-7.9l-28.5-0.3c-2.6 0-4.8-0.2-6.8-0.6q-3-0.6-3-1.5v-2.9l39.1 0.4c1.7-3 5.3-5.7 10.7-7.9q8.1-3.4 19.8-6l13.1 1.8q6 0.9 6 2 0 0.6-2.5 1.5c-1.7 0.6-3.6 1.3-5.9 2.1q-3.3 1.3-6.5 3-3.1 1.7-4.7 3.8zm-96.5 3.9c0.8 1.9 2.6 3.5 5.2 4.8q4 2.1 10 3.4 5.9 1.3 13.4 1.9 7.4 0.6 15.6 0.6 9.5-0.1 16.5-0.8 7-0.8 12.4-2.1c3.6-0.9 6.7-1.9 9.3-3.1 2.7-1.2 5-2.4 7.2-3.8zm229.3-2.6c-0.8-1.9-2.7-3.5-5.6-5q-4.5-2.1-11.5-3.6-6.9-1.4-16.2-2.1-9.2-0.7-20.3-0.7c-6.6 0-12.3 0.3-17.1 0.9q-7.1 0.8-12.4 2.2c-3.4 1-6.4 2.1-8.9 3.3q-3.6 1.9-6.8 4.1z"/><path class="W" d="m902.3 3188q-1.2 1.3-2.3 2.6c-14.5-16.6-134.6-33.8-302.4-33.8-163.5 0-281.7 16.3-301.1 32.6q-1.1-1.4-2.5-2.6c22.9-23.5 166.1-35.6 303.6-35.6 140 0 285.8 12.6 304.7 36.8z"/><path class="X" d="m979.9 3115.3v68.4c0 22.1-138 40-308.3 40-170.4 0-308.4-17.9-308.4-40v-68.4z"/><path class="Y" d="m671.5 3155.3c-170.5 0-308.3-17.9-308.3-40 0-22.1 137.8-40 308.3-40 170.6 0 308.4 17.9 308.4 40 0 22.1-137.8 40-308.4 40z"/><path class="Z" d="m671.5 3158.1c-150.8 0-308.5-14.4-308.5-42.2 0-1.6 0.5-4.2 2.1-4.2 1.5 0 0.8 2.1 0.8 3.6 0 17.6 125.5 37.2 305.6 37.2 180.2 0 305.7-19.6 305.7-37.2 0-1.5 0.2-3 1.8-3 1.5 0 1.1 2.1 1.1 3.6 0 27.8-157.7 42.2-308.6 42.2z"/><path fill-rule="evenodd" class="B" d="m642.4 3117.5q4.5-3.1 9.7-6.2c3.4-2 7.9-3.9 13.2-5.5q8.2-2.5 20.4-4c8.1-1.1 18.3-1.6 30.4-1.7q17.9-0.1 33.6 1.2 15.7 1.2 27.6 3.6 11.9 2.5 19.4 6 7.4 3.6 8.8 8.2l34.8 0.4q3.7 0 6.6 0.6c1.9 0.4 2.9 0.9 2.9 1.5v2.9l-44.6-0.5q-2.4 5.3-12 9.6-9.6 4.4-24.5 7.6l-16.2-2.3q-2.2-0.3-3.6-0.8-1.4-0.5-1.4-1.1 0-0.9 3.7-1.9 3.8-1.1 8.6-2.6 4.7-1.6 9.3-3.7 4.5-2.1 6.1-5.1l-105.4-1c-2.7 2-5.9 4-9.3 6q-5.1 2.9-13.6 5.3-8.6 2.3-21.3 3.8c-8.4 1-19.1 1.5-31.9 1.6-9.7 0-19.1-0.3-28.3-1.1q-13.8-1.2-24.5-3.5-10.7-2.4-17.6-5.8-6.9-3.4-7.7-7.9l-28.6-0.3c-2.5 0-4.7-0.2-6.7-0.6q-3-0.5-3-1.5v-2.8l39.1 0.3c1.7-3 5.2-5.6 10.7-7.8q8.1-3.4 19.8-6l13.1 1.8q5.9 0.8 5.9 2 0 0.6-2.4 1.5c-1.7 0.6-3.6 1.3-5.9 2.1q-3.3 1.3-6.5 2.9-3.2 1.7-4.8 3.9zm-96.4 3.9c0.8 1.8 2.6 3.4 5.2 4.8q4 2 9.9 3.4 6 1.3 13.4 1.9 7.5 0.6 15.6 0.6 9.5-0.1 16.6-0.9 7-0.7 12.4-2.1c3.5-0.8 6.7-1.9 9.3-3 2.6-1.2 5-2.5 7.1-3.8zm229.4-2.6c-0.8-1.9-2.7-3.6-5.7-5q-4.5-2.1-11.4-3.6-6.9-1.5-16.2-2.2-9.2-0.7-20.3-0.6c-6.6 0-12.3 0.3-17.1 0.9q-7.1 0.8-12.4 2.2c-3.5 0.9-6.5 2-8.9 3.3q-3.7 1.9-6.8 4z"/><path class="a0" d="m976.3 3116.4q-1.2 1.2-2.3 2.6c-14.5-16.7-134.7-33.9-302.4-33.9-163.6 0-281.8 16.4-301.1 32.7q-1.1-1.4-2.5-2.7c22.9-23.4 166.1-35.5 303.6-35.5 139.9 0 285.8 12.5 304.7 36.8z"/><path class="a1" d="m941.5 3043.4v68.4c0 22.1-138.1 40.1-308.4 40.1-170.3 0-308.4-18-308.4-40.1v-68.4z"/><path class="a2" d="m633.1 3083.5c-170.6 0-308.4-17.9-308.4-40.1 0-22.1 137.8-40 308.4-40 170.5 0 308.4 17.9 308.4 40 0 22.2-137.9 40.1-308.4 40.1z"/><path class="a3" d="m633.1 3086.2c-150.9 0-308.6-14.4-308.6-42.2 0-1.5 0.6-4.2 2.1-4.2 1.5 0 0.9 2.1 0.9 3.6 0 17.7 125.5 37.3 305.6 37.3 180.1 0 305.6-19.6 305.6-37.3 0-1.5 0.3-2.9 1.8-2.9 1.5 0 1.1 2 1.1 3.5 0 27.8-157.7 42.2-308.5 42.2z"/><path fill-rule="evenodd" class="B" d="m603.9 3045.7q4.6-3.2 9.7-6.2c3.4-2.1 7.9-3.9 13.3-5.6q8.1-2.4 20.3-4c8.1-1 18.3-1.6 30.5-1.6q17.8-0.1 33.5 1.1 15.7 1.2 27.6 3.7 11.9 2.4 19.4 6 7.4 3.6 8.9 8.2l34.7 0.3q3.8 0.1 6.6 0.7c2 0.4 2.9 0.9 2.9 1.5v2.8l-44.6-0.4q-2.4 5.2-12 9.6-9.6 4.4-24.5 7.6l-16.2-2.3q-2.2-0.3-3.6-0.9-1.4-0.5-1.4-1.1 0-0.8 3.8-1.9 3.7-1 8.5-2.6 4.7-1.5 9.3-3.7 4.5-2.1 6.1-5l-105.4-1.1c-2.7 2.1-5.8 4.1-9.3 6q-5.1 3-13.6 5.3-8.5 2.4-21.2 3.9c-8.5 0.9-19.1 1.5-32 1.5q-14.5 0.1-28.3-1.1-13.8-1.1-24.5-3.5-10.7-2.3-17.6-5.7-6.9-3.5-7.7-7.9l-28.5-0.3c-2.6 0-4.8-0.2-6.8-0.6q-3-0.6-3-1.5v-2.9l39.1 0.4c1.7-3 5.3-5.7 10.7-7.9q8.1-3.3 19.8-6l13.1 1.8q6 0.9 6 2 0 0.6-2.5 1.5c-1.7 0.6-3.6 1.3-5.9 2.2-2.2 0.8-4.4 1.8-6.5 2.9q-3.1 1.7-4.7 3.8zm-96.5 3.9c0.8 1.9 2.6 3.5 5.2 4.9q4 2 10 3.3 5.9 1.3 13.3 1.9 7.5 0.7 15.7 0.6 9.4 0 16.5-0.8 7-0.8 12.4-2.1c3.6-0.9 6.7-1.9 9.3-3.1 2.7-1.2 5-2.4 7.2-3.8zm229.3-2.5c-0.8-1.9-2.7-3.6-5.6-5q-4.5-2.2-11.5-3.6-6.9-1.5-16.2-2.2-9.2-0.7-20.3-0.7c-6.6 0.1-12.3 0.4-17.1 0.9q-7.1 0.8-12.4 2.3c-3.4 0.9-6.4 2-8.9 3.2q-3.6 1.9-6.8 4.1z"/><path class="a4" d="m937.8 3044.6q-1.2 1.2-2.3 2.6c-14.5-16.7-134.6-33.9-302.4-33.9-163.5 0-281.8 16.3-301.1 32.6q-1.1-1.4-2.5-2.6c22.9-23.4 166.1-35.5 303.6-35.5 140 0 285.8 12.5 304.7 36.8z"/><path class="a5" d="m1386.7 3594.3l-55.8 39.6c-18 12.8-112.6-89.3-211.3-228.1-98.7-138.8-164.2-261.7-146.2-274.5l55.8-39.6z"/><path class="a6" d="m1386.7 3594.3c-18 12.8-112.7-89.4-211.4-228.1-98.7-138.8-164.1-261.7-146.1-274.5 18-12.9 112.6 89.3 211.3 228.1 98.8 138.7 164.2 261.6 146.2 274.5z"/><path class="a7" d="m1173.1 3367.8c-87.5-123-167.1-259.8-144.5-275.9 1.2-0.9 3.7-2 4.6-0.8 0.9 1.2-1.2 1.9-2.4 2.8-14.4 10.2 42.4 123.9 146.8 270.6 104.4 146.8 193.1 237.7 207.5 227.5 1.2-0.9 2.5-1.5 3.4-0.3 0.9 1.3-1 2.2-2.2 3.1-22.7 16.1-125.8-104.1-213.2-227z"/><path fill-rule="evenodd" class="B" d="m1189.2 3320.5q5.2 1.9 10.7 4.3c3.6 1.6 7.7 4.2 12.2 7.6q6.7 5.2 15 14.2c5.6 6.1 11.9 14 19 23.9q10.4 14.5 18.5 28 8.1 13.5 13.1 24.6 4.9 11.1 6.3 19.3 1.4 8.1-1.6 12l19.9 28.5q2.2 3.1 3.3 5.7c0.8 1.9 1 2.9 0.5 3.3l-2.3 1.6-25.6-36.6q-5.6 1.1-14.7-4.2-9.1-5.2-20.4-15.5l-7.6-14.6q-0.9-2-1.3-3.4-0.4-1.5 0.1-1.8 0.6-0.5 3.7 2 3 2.4 7 5.4 4.1 3 8.5 5.5 4.3 2.4 7.6 2l-60.2-86.5c-3.3-1-6.7-2.4-10.3-4.1q-5.4-2.5-12.2-8-6.9-5.6-15.4-15.1c-5.8-6.3-12.3-14.7-19.8-25.1q-8.5-11.8-15.5-23.7-7.1-11.9-11.4-22-4.3-10.1-5.5-17.7-1.2-7.6 2-10.8l-16.3-23.5c-1.5-2-2.6-4-3.5-5.8q-1.2-2.8-0.5-3.3l2.4-1.7 22.3 32.1c3.5-0.4 7.7 1 12.6 4.1q7.5 4.7 16.4 12.7l6.1 11.7q2.8 5.3 1.8 6-0.4 0.4-2.6-1.1c-1.5-1-3.2-2.2-5.2-3.6-1.9-1.3-4-2.5-6.1-3.6q-3.2-1.6-5.9-1.6zm-59.1-76.4c-1 1.8-1.3 4.1-0.9 7.1q0.6 4.4 3 10 2.4 5.6 6.2 12 3.8 6.5 8.6 13.1 5.5 7.7 10.3 13 4.7 5.3 8.9 8.9c2.7 2.4 5.4 4.3 7.9 5.8 2.4 1.5 4.8 2.7 7.2 3.6zm135 185.4c1.1-1.7 1.4-4.2 0.8-7.5q-0.8-4.9-3.7-11.4-2.8-6.5-7.6-14.4-4.7-7.9-11.3-17c-3.8-5.3-7.4-9.8-10.6-13.4q-4.8-5.3-9-8.8c-2.8-2.3-5.4-4.1-7.8-5.3q-3.7-1.9-7.2-3.2z"/><path class="a8" d="m1383.7 3591.9q-1.8-0.2-3.5-0.3c5.1-21.5-50.4-129.4-147.7-266.1-94.8-133.3-176.6-220.1-201.1-226.4q0.5-1.8 0.7-3.6c32.4 5.1 125.2 114.8 204.9 226.8 81.1 114 155.5 240.2 146.7 269.6z"/><path class="a9" d="m2832.4 3457.2l-27.9 2.2c-7.2 0.6-14.5 0.3-21.6-0.9l-110.7-18-1.8-0.3-128.6-21h-0.8l-100.8-16.4v-567l101.4-0.1h0.2l128.6 6.4 1.9 1 155.6 5.9z"/><path class="aa" d="m3223.8 2871.9v529.3c0 18.9-14.5 34.4-33.4 35.5l-369.1 21.9c-14.9 0.9-27.7-11.5-27.7-26.9v-551.4c0-15.4 12.1-28.2 27.1-28.6l371.8-10.4c17.2-0.4 31.3 13.3 31.3 30.6z"/><path class="ab" d="m2783.6 2828l408.9 13.3-398.9 11.2-352.6-16.7z"/><path class="ac" d="m3223.8 2872.4v533c0 16.5-12.7 30.1-29.1 31l-160.3 9.6c-14.9 0.9-28.5-9.1-32.3-23.7-7.1-27.8-9.2-53.8-7.6-77.9 6-91.7 62.8-122.6 46.8-194.4-19.3-86.2-111.9-89.7-153.4-183.6-12.4-28.1-17.1-57.3-17.2-85.6 0-16.9 13.5-30.9 30.1-31.3l291.2-8.1c17.5-0.5 31.8 13.4 31.8 31z"/><path class="ad" d="m2923 2848.9l136.9-3.9v599.5l-136.9 8.1z"/><path class="ae" d="m2929.2 2848.7l130.7-3.7v599.5l-130.7 7.7z"/><path class="af" d="m2668.5 2843.9v596.6l-125.3-21.3v-578.7l39.9-0.7z"/><path class="ag" d="m2681.4 2830.3l381.5 21.7h-137.1l-333.6-19.7z"/><path class="ah" d="m2867 2812c8.9-54.4 15.4-94.2 51-130.9 15-15.5 31.3-32.4 58.2-36.9 30.8-5.2 70.2 7 81 32.2 10.3 23.9-13.9 39.5-3.6 67 10.3 27.7 40.3 27.1 43.6 49.4 2.8 18.9-15.6 40.3-34.3 50.4-32.1 17.4-50.4-7.1-113.2-3.1-43.3 2.7-68.3 16.4-80.1 2.6-5.5-6.6-5-15.7-2.6-30.7z"/><g style="opacity:.3;mix-blend-mode:multiply"><path class="ai" d="m3097.4 2797.5c-0.5 17.7-17.4 36.5-34.5 45.7-32.1 17.4-50.4-7.1-113.2-3.1-43.3 2.7-68.3 16.4-80.1 2.6-1.7-2.1-2.8-4.5-3.5-7.2 26.7 0 56.8-5 73.2-26.1 17.9-23 8.6-51.4 23.9-58.2 17.2-7.6 37 24.7 75.8 39.5 20.1 7.7 40.3 8.8 58.4 6.8z"/></g><path class="aj" d="m2632.7 2677.5c26.1-20.6 53.6 2.3 85.7-20.3 32.6-22.9 23.1-59.7 48.4-70.2 29.3-12.1 72.7 24.9 93.5 48.4 52.8 59.6 77.6 165.4 35.8 202.6-15.6 14-60 8.2-148-3.9-100.6-13.8-115.1-23.7-124.7-36.6-26-34.9-20.2-96.7 9.3-120z"/><g style="opacity:.3;mix-blend-mode:multiply"><path class="ak" d="m2842.6 2810.5c16 15.5 38.2 20.6 59.3 21.3-1.8 2.2-3.7 4.3-5.8 6.2-15.6 14-60 8.2-148-3.9-100.6-13.8-115.1-23.7-124.7-36.6-26-34.9-20.2-96.7 9.3-120 4.1-3.2 8.1-5.4 12.2-6.8-0.6 18.7 4.7 36.3 15.9 49.4 28.2 32.9 80.8 22 86.2 20.7 29.8-6.6 36.4-23.2 50.9-18.7 24.7 7.8 13.9 58.4 44.7 88.4z"/></g><path class="al" d="m2804.2 2841.6l-133.8 5-128.8-6.1 41.6-0.7 182.4-3.3z"/></svg>